<?xml version="1.0"?>
<svg xmlns="http://www.w3.org/2000/svg" xmlns:xlink="http://www.w3.org/1999/xlink" version="1.1" id="Capa_1" x="0px" y="0px" viewBox="0 0 425.448 425.448" style="enable-background:new 0 0 425.448 425.448;" xml:space="preserve" width="512px" height="512px" class=""><g><path d="M422.169,131.995l-79.767-40.622l0.135-0.052c1.501-0.572,2.709-1.723,3.355-3.192  c0.646-1.471,0.676-3.139,0.083-4.631l-21.105-53.08c-1.04-2.615-3.717-4.091-6.393-3.723c-0.265-0.035-0.533-0.061-0.808-0.061  H107.779c-0.275,0-0.544,0.025-0.81,0.061c-2.675-0.367-5.35,1.107-6.39,3.723l-21.107,53.08c-0.594,1.492-0.564,3.16,0.082,4.631  c0.646,1.47,1.854,2.62,3.355,3.192l0.135,0.052L3.279,131.995c-2.953,1.504-4.128,5.116-2.624,8.069  c1.059,2.081,3.167,3.278,5.352,3.278c0.916,0,1.846-0.21,2.718-0.654l89.394-45.525c0.015-0.008,0.029-0.018,0.044-0.025  l65.865,25.117c0.703,0.268,1.425,0.396,2.136,0.396c2.388,0,4.643-1.435,5.577-3.785l7.14-17.953l8.046,17.91  c0.968,2.155,3.111,3.541,5.473,3.541h0.777l-29.449,239.949c-0.272,2.214,0.707,4.396,2.542,5.665l43.042,29.771  c1.026,0.71,2.22,1.065,3.413,1.065c1.176,0,2.352-0.345,3.37-1.036l43.858-29.771c1.861-1.263,2.859-3.462,2.585-5.694  l-29.461-240.048c1.938-0.339,3.618-1.607,4.442-3.442l8.579-19.098l7.611,19.141c0.934,2.35,3.189,3.785,5.577,3.785  c0.711,0,1.433-0.128,2.136-0.396l65.865-25.117c0.016,0.008,0.029,0.018,0.044,0.025l89.395,45.525  c0.872,0.444,1.802,0.654,2.718,0.654c2.185,0,4.292-1.197,5.352-3.278C426.297,137.111,425.122,133.499,422.169,131.995z   M236.039,57.963c-0.013,0.005-0.024,0.014-0.037,0.019h-46.555c-0.013-0.005-0.024-0.014-0.037-0.019l-50.684-19.329h147.996  L236.039,57.963z M162.775,108.934L92.871,82.277l16.673-41.929l69.903,26.659L162.775,108.934z M212.756,385.54l-36.676-25.368  l28.336-230.879l18.532,8.956l27.232,221.887L212.756,385.54z M228.162,110.363h-31.881l-11.225-24.984l6.123-15.396h43.091  l5.65,14.208L228.162,110.363z M246.001,67.007l69.904-26.659l16.671,41.929l-69.904,26.657L246.001,67.007z" data-original="#231F20" class="active-path" data-old_color="#231F20" fill="#0F9435"/></g> </svg>
