<?xml version="1.0"?>
<svg xmlns="http://www.w3.org/2000/svg" xmlns:xlink="http://www.w3.org/1999/xlink" version="1.1" id="Capa_1" x="0px" y="0px" viewBox="0 0 417.441 417.441" style="enable-background:new 0 0 417.441 417.441;" xml:space="preserve" width="512px" height="512px"><g><g>
	<path d="M408.901,327.049l-0.977-184.681c-0.023-4.68-3.851-8.487-8.531-8.487H298.084c-1.93,0-3.5-1.57-3.5-3.5V23.575   c0-4.687-3.813-8.5-8.5-8.5H131.357c-4.687,0-8.5,3.813-8.5,8.5v106.806c0,1.93-1.57,3.5-3.5,3.5H17.488   c-4.68,0-8.507,3.807-8.532,8.486L7.979,327.338C3.226,329.989,0,335.062,0,340.88v45.986c0,8.547,6.953,15.5,15.5,15.5h173.952   c8.547,0,15.5-6.953,15.5-15.5V340.88c0-5.574-2.967-10.455-7.395-13.187l5.829-123.292c0.093-1.972,1.841-3.657,3.814-3.681   l1.656-0.019c1.93,0,3.645,1.626,3.744,3.552l6.476,123.965c-3.978,2.809-6.588,7.432-6.588,12.661v45.986   c0,8.547,6.953,15.5,15.5,15.5h173.952c8.547,0,15.5-6.953,15.5-15.5V340.88C417.441,334.837,413.958,329.605,408.901,327.049z" data-original="#000000" class="active-path" data-old_color="#000000" fill="#77B8DD"/>
	<path d="M19.909,113.881h74.448c4.687,0,8.5-3.813,8.5-8.5V23.575c0-4.687-3.813-8.5-8.5-8.5H59.021   c-4.298,0-8.962,3.107-10.617,7.075l-34.494,82.73c-0.933,2.237-0.801,4.519,0.359,6.26   C15.431,112.882,17.486,113.881,19.909,113.881z" data-original="#000000" class="active-path" data-old_color="#000000" fill="#77B8DD"/>
	<path d="M323.084,113.881h73.888c2.423,0,4.479-0.999,5.64-2.74c1.16-1.741,1.292-4.022,0.359-6.26l-34.495-82.73   c-1.654-3.968-6.317-7.075-10.616-7.075h-34.775c-4.687,0-8.5,3.813-8.5,8.5v81.806   C314.584,110.067,318.397,113.881,323.084,113.881z" data-original="#000000" class="active-path" data-old_color="#000000" fill="#77B8DD"/>
</g></g> </svg>
